<?xml version="1.0" encoding="utf-8" standalone="no"?>
<!DOCTYPE svg PUBLIC "-//W3C//DTD SVG 1.1//EN"
  "http://www.w3.org/Graphics/SVG/1.1/DTD/svg11.dtd">
<!-- Created with matplotlib (https://matplotlib.org/) -->
<svg height="432pt" version="1.1" viewBox="0 0 432 432" width="432pt" xmlns="http://www.w3.org/2000/svg" xmlns:xlink="http://www.w3.org/1999/xlink">
 <defs>
  <style type="text/css">
*{stroke-linecap:butt;stroke-linejoin:round;}
  </style>
 </defs>
 <g id="figure_1">
  <g id="patch_1">
   <path d="M 0 432 
L 432 432 
L 432 0 
L 0 0 
z
" style="fill:#ffffff;"/>
  </g>
  <g id="axes_1">
   <g id="patch_2">
    <path d="M 46.55 202.825 
L 421.2 202.825 
L 421.2 10.8 
L 46.55 10.8 
z
" style="fill:#ffffff;"/>
   </g>
   <g id="patch_3">
    <path clip-path="url(#p019e0b918e)" d="M 56.956944 84.655769 
L 62.160417 84.655769 
L 62.160417 91.409182 
L 56.956944 91.409182 
z
" style="fill:#1f77b4;"/>
   </g>
   <g id="patch_4">
    <path clip-path="url(#p019e0b918e)" d="M 98.584722 84.655769 
L 103.788194 84.655769 
L 103.788194 89.344605 
L 98.584722 89.344605 
z
" style="fill:#1f77b4;"/>
   </g>
   <g id="patch_5">
    <path clip-path="url(#p019e0b918e)" d="M 140.2125 84.655769 
L 145.415972 84.655769 
L 145.415972 87.538862 
L 140.2125 87.538862 
z
" style="fill:#1f77b4;"/>
   </g>
   <g id="patch_6">
    <path clip-path="url(#p019e0b918e)" d="M 181.840278 84.655769 
L 187.04375 84.655769 
L 187.04375 81.053796 
L 181.840278 81.053796 
z
" style="fill:#1f77b4;"/>
   </g>
   <g id="patch_7">
    <path clip-path="url(#p019e0b918e)" d="M 223.468056 84.655769 
L 228.671528 84.655769 
L 228.671528 77.44231 
L 223.468056 77.44231 
z
" style="fill:#1f77b4;"/>
   </g>
   <g id="patch_8">
    <path clip-path="url(#p019e0b918e)" d="M 265.095833 84.655769 
L 270.299306 84.655769 
L 270.299306 85.862768 
L 265.095833 85.862768 
z
" style="fill:#1f77b4;"/>
   </g>
   <g id="patch_9">
    <path clip-path="url(#p019e0b918e)" d="M 306.723611 84.655769 
L 311.927083 84.655769 
L 311.927083 122.540705 
L 306.723611 122.540705 
z
" style="fill:#1f77b4;"/>
   </g>
   <g id="patch_10">
    <path clip-path="url(#p019e0b918e)" d="M 348.351389 84.655769 
L 353.554861 84.655769 
L 353.554861 156.823668 
L 348.351389 156.823668 
z
" style="fill:#1f77b4;"/>
   </g>
   <g id="patch_11">
    <path clip-path="url(#p019e0b918e)" d="M 389.979167 84.655769 
L 395.182639 84.655769 
L 395.182639 191.097119 
L 389.979167 191.097119 
z
" style="fill:#1f77b4;"/>
   </g>
   <g id="patch_12">
    <path clip-path="url(#p019e0b918e)" d="M 62.160417 84.655769 
L 67.363889 84.655769 
L 67.363889 66.942868 
L 62.160417 66.942868 
z
" style="fill:#ff7f0e;"/>
   </g>
   <g id="patch_13">
    <path clip-path="url(#p019e0b918e)" d="M 103.788194 84.655769 
L 108.991667 84.655769 
L 108.991667 85.356759 
L 103.788194 85.356759 
z
" style="fill:#ff7f0e;"/>
   </g>
   <g id="patch_14">
    <path clip-path="url(#p019e0b918e)" d="M 145.415972 84.655769 
L 150.619444 84.655769 
L 150.619444 83.551016 
L 145.415972 83.551016 
z
" style="fill:#ff7f0e;"/>
   </g>
   <g id="patch_15">
    <path clip-path="url(#p019e0b918e)" d="M 187.04375 84.655769 
L 192.247222 84.655769 
L 192.247222 81.053796 
L 187.04375 81.053796 
z
" style="fill:#ff7f0e;"/>
   </g>
   <g id="patch_16">
    <path clip-path="url(#p019e0b918e)" d="M 228.671528 84.655769 
L 233.875 84.655769 
L 233.875 77.44231 
L 228.671528 77.44231 
z
" style="fill:#ff7f0e;"/>
   </g>
   <g id="patch_17">
    <path clip-path="url(#p019e0b918e)" d="M 270.299306 84.655769 
L 275.502778 84.655769 
L 275.502778 85.862768 
L 270.299306 85.862768 
z
" style="fill:#ff7f0e;"/>
   </g>
   <g id="patch_18">
    <path clip-path="url(#p019e0b918e)" d="M 311.927083 84.655769 
L 317.130556 84.655769 
L 317.130556 86.053751 
L 311.927083 86.053751 
z
" style="fill:#ff7f0e;"/>
   </g>
   <g id="patch_19">
    <path clip-path="url(#p019e0b918e)" d="M 353.554861 84.655769 
L 358.758333 84.655769 
L 358.758333 83.849759 
L 353.554861 83.849759 
z
" style="fill:#ff7f0e;"/>
   </g>
   <g id="patch_20">
    <path clip-path="url(#p019e0b918e)" d="M 395.182639 84.655769 
L 400.386111 84.655769 
L 400.386111 81.636255 
L 395.182639 81.636255 
z
" style="fill:#ff7f0e;"/>
   </g>
   <g id="patch_21">
    <path clip-path="url(#p019e0b918e)" d="M 67.363889 84.655769 
L 72.567361 84.655769 
L 72.567361 87.834813 
L 67.363889 87.834813 
z
" style="fill:#2ca02c;"/>
   </g>
   <g id="patch_22">
    <path clip-path="url(#p019e0b918e)" d="M 108.991667 84.655769 
L 114.195139 84.655769 
L 114.195139 70.809298 
L 108.991667 70.809298 
z
" style="fill:#2ca02c;"/>
   </g>
   <g id="patch_23">
    <path clip-path="url(#p019e0b918e)" d="M 150.619444 84.655769 
L 155.822917 84.655769 
L 155.822917 64.719137 
L 150.619444 64.719137 
z
" style="fill:#2ca02c;"/>
   </g>
   <g id="patch_24">
    <path clip-path="url(#p019e0b918e)" d="M 192.247222 84.655769 
L 197.450694 84.655769 
L 197.450694 72.649643 
L 192.247222 72.649643 
z
" style="fill:#2ca02c;"/>
   </g>
   <g id="patch_25">
    <path clip-path="url(#p019e0b918e)" d="M 233.875 84.655769 
L 239.078472 84.655769 
L 239.078472 60.469321 
L 233.875 60.469321 
z
" style="fill:#2ca02c;"/>
   </g>
   <g id="patch_26">
    <path clip-path="url(#p019e0b918e)" d="M 275.502778 84.655769 
L 280.70625 84.655769 
L 280.70625 88.773942 
L 275.502778 88.773942 
z
" style="fill:#2ca02c;"/>
   </g>
   <g id="patch_27">
    <path clip-path="url(#p019e0b918e)" d="M 317.130556 84.655769 
L 322.334028 84.655769 
L 322.334028 105.772609 
L 317.130556 105.772609 
z
" style="fill:#2ca02c;"/>
   </g>
   <g id="patch_28">
    <path clip-path="url(#p019e0b918e)" d="M 358.758333 84.655769 
L 363.961806 84.655769 
L 363.961806 114.883322 
L 358.758333 114.883322 
z
" style="fill:#2ca02c;"/>
   </g>
   <g id="patch_29">
    <path clip-path="url(#p019e0b918e)" d="M 400.386111 84.655769 
L 405.589583 84.655769 
L 405.589583 123.81984 
L 400.386111 123.81984 
z
" style="fill:#2ca02c;"/>
   </g>
   <g id="patch_30">
    <path clip-path="url(#p019e0b918e)" d="M 72.567361 84.655769 
L 77.770833 84.655769 
L 77.770833 71.557001 
L 72.567361 71.557001 
z
" style="fill:#d62728;"/>
   </g>
   <g id="patch_31">
    <path clip-path="url(#p019e0b918e)" d="M 114.195139 84.655769 
L 119.398611 84.655769 
L 119.398611 78.948204 
L 114.195139 78.948204 
z
" style="fill:#d62728;"/>
   </g>
   <g id="patch_32">
    <path clip-path="url(#p019e0b918e)" d="M 155.822917 84.655769 
L 161.026389 84.655769 
L 161.026389 72.858043 
L 155.822917 72.858043 
z
" style="fill:#d62728;"/>
   </g>
   <g id="patch_33">
    <path clip-path="url(#p019e0b918e)" d="M 197.450694 84.655769 
L 202.654167 84.655769 
L 202.654167 73.763683 
L 197.450694 73.763683 
z
" style="fill:#d62728;"/>
   </g>
   <g id="patch_34">
    <path clip-path="url(#p019e0b918e)" d="M 239.078472 84.655769 
L 244.281944 84.655769 
L 244.281944 61.583361 
L 239.078472 61.583361 
z
" style="fill:#d62728;"/>
   </g>
   <g id="patch_35">
    <path clip-path="url(#p019e0b918e)" d="M 280.70625 84.655769 
L 285.909722 84.655769 
L 285.909722 89.145288 
L 280.70625 89.145288 
z
" style="fill:#d62728;"/>
   </g>
   <g id="patch_36">
    <path clip-path="url(#p019e0b918e)" d="M 322.334028 84.655769 
L 327.5375 84.655769 
L 327.5375 90.608838 
L 322.334028 90.608838 
z
" style="fill:#d62728;"/>
   </g>
   <g id="patch_37">
    <path clip-path="url(#p019e0b918e)" d="M 363.961806 84.655769 
L 369.165278 84.655769 
L 369.165278 85.66982 
L 363.961806 85.66982 
z
" style="fill:#d62728;"/>
   </g>
   <g id="patch_38">
    <path clip-path="url(#p019e0b918e)" d="M 405.589583 84.655769 
L 410.793056 84.655769 
L 410.793056 79.442567 
L 405.589583 79.442567 
z
" style="fill:#d62728;"/>
   </g>
   <g id="matplotlib.axis_1">
    <g id="xtick_1">
     <g id="line2d_1">
      <defs>
       <path d="M 0 0 
L 0 3.5 
" id="m850ac2f7da" style="stroke:#000000;stroke-width:0.8;"/>
      </defs>
      <g>
       <use style="stroke:#000000;stroke-width:0.8;" x="67.363889" xlink:href="#m850ac2f7da" y="202.825"/>
      </g>
     </g>
     <g id="text_1">
      <!-- FeS + Li2O -&gt; FeO + Li2S -->
      <defs>
       <path d="M 9.8125 72.90625 
L 51.703125 72.90625 
L 51.703125 64.59375 
L 19.671875 64.59375 
L 19.671875 43.109375 
L 48.578125 43.109375 
L 48.578125 34.8125 
L 19.671875 34.8125 
L 19.671875 0 
L 9.8125 0 
z
" id="DejaVuSans-70"/>
       <path d="M 56.203125 29.59375 
L 56.203125 25.203125 
L 14.890625 25.203125 
Q 15.484375 15.921875 20.484375 11.0625 
Q 25.484375 6.203125 34.421875 6.203125 
Q 39.59375 6.203125 44.453125 7.46875 
Q 49.3125 8.734375 54.109375 11.28125 
L 54.109375 2.78125 
Q 49.265625 0.734375 44.1875 -0.34375 
Q 39.109375 -1.421875 33.890625 -1.421875 
Q 20.796875 -1.421875 13.15625 6.1875 
Q 5.515625 13.8125 5.515625 26.8125 
Q 5.515625 40.234375 12.765625 48.109375 
Q 20.015625 56 32.328125 56 
Q 43.359375 56 49.78125 48.890625 
Q 56.203125 41.796875 56.203125 29.59375 
z
M 47.21875 32.234375 
Q 47.125 39.59375 43.09375 43.984375 
Q 39.0625 48.390625 32.421875 48.390625 
Q 24.90625 48.390625 20.390625 44.140625 
Q 15.875 39.890625 15.1875 32.171875 
z
" id="DejaVuSans-101"/>
       <path d="M 53.515625 70.515625 
L 53.515625 60.890625 
Q 47.90625 63.578125 42.921875 64.890625 
Q 37.9375 66.21875 33.296875 66.21875 
Q 25.25 66.21875 20.875 63.09375 
Q 16.5 59.96875 16.5 54.203125 
Q 16.5 49.359375 19.40625 46.890625 
Q 22.3125 44.4375 30.421875 42.921875 
L 36.375 41.703125 
Q 47.40625 39.59375 52.65625 34.296875 
Q 57.90625 29 57.90625 20.125 
Q 57.90625 9.515625 50.796875 4.046875 
Q 43.703125 -1.421875 29.984375 -1.421875 
Q 24.8125 -1.421875 18.96875 -0.25 
Q 13.140625 0.921875 6.890625 3.21875 
L 6.890625 13.375 
Q 12.890625 10.015625 18.65625 8.296875 
Q 24.421875 6.59375 29.984375 6.59375 
Q 38.421875 6.59375 43.015625 9.90625 
Q 47.609375 13.234375 47.609375 19.390625 
Q 47.609375 24.75 44.3125 27.78125 
Q 41.015625 30.8125 33.5 32.328125 
L 27.484375 33.5 
Q 16.453125 35.6875 11.515625 40.375 
Q 6.59375 45.0625 6.59375 53.421875 
Q 6.59375 63.09375 13.40625 68.65625 
Q 20.21875 74.21875 32.171875 74.21875 
Q 37.3125 74.21875 42.625 73.28125 
Q 47.953125 72.359375 53.515625 70.515625 
z
" id="DejaVuSans-83"/>
       <path id="DejaVuSans-32"/>
       <path d="M 46 62.703125 
L 46 35.5 
L 73.1875 35.5 
L 73.1875 27.203125 
L 46 27.203125 
L 46 0 
L 37.796875 0 
L 37.796875 27.203125 
L 10.59375 27.203125 
L 10.59375 35.5 
L 37.796875 35.5 
L 37.796875 62.703125 
z
" id="DejaVuSans-43"/>
       <path d="M 9.8125 72.90625 
L 19.671875 72.90625 
L 19.671875 8.296875 
L 55.171875 8.296875 
L 55.171875 0 
L 9.8125 0 
z
" id="DejaVuSans-76"/>
       <path d="M 9.421875 54.6875 
L 18.40625 54.6875 
L 18.40625 0 
L 9.421875 0 
z
M 9.421875 75.984375 
L 18.40625 75.984375 
L 18.40625 64.59375 
L 9.421875 64.59375 
z
" id="DejaVuSans-105"/>
       <path d="M 19.1875 8.296875 
L 53.609375 8.296875 
L 53.609375 0 
L 7.328125 0 
L 7.328125 8.296875 
Q 12.9375 14.109375 22.625 23.890625 
Q 32.328125 33.6875 34.8125 36.53125 
Q 39.546875 41.84375 41.421875 45.53125 
Q 43.3125 49.21875 43.3125 52.78125 
Q 43.3125 58.59375 39.234375 62.25 
Q 35.15625 65.921875 28.609375 65.921875 
Q 23.96875 65.921875 18.8125 64.3125 
Q 13.671875 62.703125 7.8125 59.421875 
L 7.8125 69.390625 
Q 13.765625 71.78125 18.9375 73 
Q 24.125 74.21875 28.421875 74.21875 
Q 39.75 74.21875 46.484375 68.546875 
Q 53.21875 62.890625 53.21875 53.421875 
Q 53.21875 48.921875 51.53125 44.890625 
Q 49.859375 40.875 45.40625 35.40625 
Q 44.1875 33.984375 37.640625 27.21875 
Q 31.109375 20.453125 19.1875 8.296875 
z
" id="DejaVuSans-50"/>
       <path d="M 39.40625 66.21875 
Q 28.65625 66.21875 22.328125 58.203125 
Q 16.015625 50.203125 16.015625 36.375 
Q 16.015625 22.609375 22.328125 14.59375 
Q 28.65625 6.59375 39.40625 6.59375 
Q 50.140625 6.59375 56.421875 14.59375 
Q 62.703125 22.609375 62.703125 36.375 
Q 62.703125 50.203125 56.421875 58.203125 
Q 50.140625 66.21875 39.40625 66.21875 
z
M 39.40625 74.21875 
Q 54.734375 74.21875 63.90625 63.9375 
Q 73.09375 53.65625 73.09375 36.375 
Q 73.09375 19.140625 63.90625 8.859375 
Q 54.734375 -1.421875 39.40625 -1.421875 
Q 24.03125 -1.421875 14.8125 8.828125 
Q 5.609375 19.09375 5.609375 36.375 
Q 5.609375 53.65625 14.8125 63.9375 
Q 24.03125 74.21875 39.40625 74.21875 
z
" id="DejaVuSans-79"/>
       <path d="M 4.890625 31.390625 
L 31.203125 31.390625 
L 31.203125 23.390625 
L 4.890625 23.390625 
z
" id="DejaVuSans-45"/>
       <path d="M 10.59375 49.21875 
L 10.59375 58.109375 
L 73.1875 35.40625 
L 73.1875 27.296875 
L 10.59375 4.59375 
L 10.59375 13.484375 
L 60.890625 31.296875 
z
" id="DejaVuSans-62"/>
      </defs>
      <g transform="translate(70.123264 338.215625)rotate(-90)scale(0.1 -0.1)">
       <use xlink:href="#DejaVuSans-70"/>
       <use x="52.019531" xlink:href="#DejaVuSans-101"/>
       <use x="113.542969" xlink:href="#DejaVuSans-83"/>
       <use x="177.019531" xlink:href="#DejaVuSans-32"/>
       <use x="208.806641" xlink:href="#DejaVuSans-43"/>
       <use x="292.595703" xlink:href="#DejaVuSans-32"/>
       <use x="324.382812" xlink:href="#DejaVuSans-76"/>
       <use x="380.095703" xlink:href="#DejaVuSans-105"/>
       <use x="407.878906" xlink:href="#DejaVuSans-50"/>
       <use x="471.501953" xlink:href="#DejaVuSans-79"/>
       <use x="550.212891" xlink:href="#DejaVuSans-32"/>
       <use x="582" xlink:href="#DejaVuSans-45"/>
       <use x="618.083984" xlink:href="#DejaVuSans-62"/>
       <use x="701.873047" xlink:href="#DejaVuSans-32"/>
       <use x="733.660156" xlink:href="#DejaVuSans-70"/>
       <use x="785.679688" xlink:href="#DejaVuSans-101"/>
       <use x="847.203125" xlink:href="#DejaVuSans-79"/>
       <use x="925.914062" xlink:href="#DejaVuSans-32"/>
       <use x="957.701172" xlink:href="#DejaVuSans-43"/>
       <use x="1041.490234" xlink:href="#DejaVuSans-32"/>
       <use x="1073.277344" xlink:href="#DejaVuSans-76"/>
       <use x="1128.990234" xlink:href="#DejaVuSans-105"/>
       <use x="1156.773438" xlink:href="#DejaVuSans-50"/>
       <use x="1220.396484" xlink:href="#DejaVuSans-83"/>
      </g>
     </g>
    </g>
    <g id="xtick_2">
     <g id="line2d_2">
      <g>
       <use style="stroke:#000000;stroke-width:0.8;" x="108.991667" xlink:href="#m850ac2f7da" y="202.825"/>
      </g>
     </g>
     <g id="text_2">
      <!-- 0.5 FeS2 + 1.5 FeO -&gt; FeS + 0.5 Fe2O3 -->
      <defs>
       <path d="M 31.78125 66.40625 
Q 24.171875 66.40625 20.328125 58.90625 
Q 16.5 51.421875 16.5 36.375 
Q 16.5 21.390625 20.328125 13.890625 
Q 24.171875 6.390625 31.78125 6.390625 
Q 39.453125 6.390625 43.28125 13.890625 
Q 47.125 21.390625 47.125 36.375 
Q 47.125 51.421875 43.28125 58.90625 
Q 39.453125 66.40625 31.78125 66.40625 
z
M 31.78125 74.21875 
Q 44.046875 74.21875 50.515625 64.515625 
Q 56.984375 54.828125 56.984375 36.375 
Q 56.984375 17.96875 50.515625 8.265625 
Q 44.046875 -1.421875 31.78125 -1.421875 
Q 19.53125 -1.421875 13.0625 8.265625 
Q 6.59375 17.96875 6.59375 36.375 
Q 6.59375 54.828125 13.0625 64.515625 
Q 19.53125 74.21875 31.78125 74.21875 
z
" id="DejaVuSans-48"/>
       <path d="M 10.6875 12.40625 
L 21 12.40625 
L 21 0 
L 10.6875 0 
z
" id="DejaVuSans-46"/>
       <path d="M 10.796875 72.90625 
L 49.515625 72.90625 
L 49.515625 64.59375 
L 19.828125 64.59375 
L 19.828125 46.734375 
Q 21.96875 47.46875 24.109375 47.828125 
Q 26.265625 48.1875 28.421875 48.1875 
Q 40.625 48.1875 47.75 41.5 
Q 54.890625 34.8125 54.890625 23.390625 
Q 54.890625 11.625 47.5625 5.09375 
Q 40.234375 -1.421875 26.90625 -1.421875 
Q 22.3125 -1.421875 17.546875 -0.640625 
Q 12.796875 0.140625 7.71875 1.703125 
L 7.71875 11.625 
Q 12.109375 9.234375 16.796875 8.0625 
Q 21.484375 6.890625 26.703125 6.890625 
Q 35.15625 6.890625 40.078125 11.328125 
Q 45.015625 15.765625 45.015625 23.390625 
Q 45.015625 31 40.078125 35.4375 
Q 35.15625 39.890625 26.703125 39.890625 
Q 22.75 39.890625 18.8125 39.015625 
Q 14.890625 38.140625 10.796875 36.28125 
z
" id="DejaVuSans-53"/>
       <path d="M 12.40625 8.296875 
L 28.515625 8.296875 
L 28.515625 63.921875 
L 10.984375 60.40625 
L 10.984375 69.390625 
L 28.421875 72.90625 
L 38.28125 72.90625 
L 38.28125 8.296875 
L 54.390625 8.296875 
L 54.390625 0 
L 12.40625 0 
z
" id="DejaVuSans-49"/>
       <path d="M 40.578125 39.3125 
Q 47.65625 37.796875 51.625 33 
Q 55.609375 28.21875 55.609375 21.1875 
Q 55.609375 10.40625 48.1875 4.484375 
Q 40.765625 -1.421875 27.09375 -1.421875 
Q 22.515625 -1.421875 17.65625 -0.515625 
Q 12.796875 0.390625 7.625 2.203125 
L 7.625 11.71875 
Q 11.71875 9.328125 16.59375 8.109375 
Q 21.484375 6.890625 26.8125 6.890625 
Q 36.078125 6.890625 40.9375 10.546875 
Q 45.796875 14.203125 45.796875 21.1875 
Q 45.796875 27.640625 41.28125 31.265625 
Q 36.765625 34.90625 28.71875 34.90625 
L 20.21875 34.90625 
L 20.21875 43.015625 
L 29.109375 43.015625 
Q 36.375 43.015625 40.234375 45.921875 
Q 44.09375 48.828125 44.09375 54.296875 
Q 44.09375 59.90625 40.109375 62.90625 
Q 36.140625 65.921875 28.71875 65.921875 
Q 24.65625 65.921875 20.015625 65.03125 
Q 15.375 64.15625 9.8125 62.3125 
L 9.8125 71.09375 
Q 15.4375 72.65625 20.34375 73.4375 
Q 25.25 74.21875 29.59375 74.21875 
Q 40.828125 74.21875 47.359375 69.109375 
Q 53.90625 64.015625 53.90625 55.328125 
Q 53.90625 49.265625 50.4375 45.09375 
Q 46.96875 40.921875 40.578125 39.3125 
z
" id="DejaVuSans-51"/>
      </defs>
      <g transform="translate(111.751042 407.83125)rotate(-90)scale(0.1 -0.1)">
       <use xlink:href="#DejaVuSans-48"/>
       <use x="63.623047" xlink:href="#DejaVuSans-46"/>
       <use x="95.410156" xlink:href="#DejaVuSans-53"/>
       <use x="159.033203" xlink:href="#DejaVuSans-32"/>
       <use x="190.820312" xlink:href="#DejaVuSans-70"/>
       <use x="242.839844" xlink:href="#DejaVuSans-101"/>
       <use x="304.363281" xlink:href="#DejaVuSans-83"/>
       <use x="367.839844" xlink:href="#DejaVuSans-50"/>
       <use x="431.462891" xlink:href="#DejaVuSans-32"/>
       <use x="463.25" xlink:href="#DejaVuSans-43"/>
       <use x="547.039062" xlink:href="#DejaVuSans-32"/>
       <use x="578.826172" xlink:href="#DejaVuSans-49"/>
       <use x="642.449219" xlink:href="#DejaVuSans-46"/>
       <use x="674.236328" xlink:href="#DejaVuSans-53"/>
       <use x="737.859375" xlink:href="#DejaVuSans-32"/>
       <use x="769.646484" xlink:href="#DejaVuSans-70"/>
       <use x="821.666016" xlink:href="#DejaVuSans-101"/>
       <use x="883.189453" xlink:href="#DejaVuSans-79"/>
       <use x="961.900391" xlink:href="#DejaVuSans-32"/>
       <use x="993.6875" xlink:href="#DejaVuSans-45"/>
       <use x="1029.771484" xlink:href="#DejaVuSans-62"/>
       <use x="1113.560547" xlink:href="#DejaVuSans-32"/>
       <use x="1145.347656" xlink:href="#DejaVuSans-70"/>
       <use x="1197.367188" xlink:href="#DejaVuSans-101"/>
       <use x="1258.890625" xlink:href="#DejaVuSans-83"/>
       <use x="1322.367188" xlink:href="#DejaVuSans-32"/>
       <use x="1354.154297" xlink:href="#DejaVuSans-43"/>
       <use x="1437.943359" xlink:href="#DejaVuSans-32"/>
       <use x="1469.730469" xlink:href="#DejaVuSans-48"/>
       <use x="1533.353516" xlink:href="#DejaVuSans-46"/>
       <use x="1565.140625" xlink:href="#DejaVuSans-53"/>
       <use x="1628.763672" xlink:href="#DejaVuSans-32"/>
       <use x="1660.550781" xlink:href="#DejaVuSans-70"/>
       <use x="1712.570312" xlink:href="#DejaVuSans-101"/>
       <use x="1774.09375" xlink:href="#DejaVuSans-50"/>
       <use x="1837.716797" xlink:href="#DejaVuSans-79"/>
       <use x="1916.427734" xlink:href="#DejaVuSans-51"/>
      </g>
     </g>
    </g>
    <g id="xtick_3">
     <g id="line2d_3">
      <g>
       <use style="stroke:#000000;stroke-width:0.8;" x="150.619444" xlink:href="#m850ac2f7da" y="202.825"/>
      </g>
     </g>
     <g id="text_3">
      <!-- 0.5 FeS2 + 2 FeO -&gt; FeS + 0.5 Fe3O4 -->
      <defs>
       <path d="M 37.796875 64.3125 
L 12.890625 25.390625 
L 37.796875 25.390625 
z
M 35.203125 72.90625 
L 47.609375 72.90625 
L 47.609375 25.390625 
L 58.015625 25.390625 
L 58.015625 17.1875 
L 47.609375 17.1875 
L 47.609375 0 
L 37.796875 0 
L 37.796875 17.1875 
L 4.890625 17.1875 
L 4.890625 26.703125 
z
" id="DejaVuSans-52"/>
      </defs>
      <g transform="translate(153.378819 398.290625)rotate(-90)scale(0.1 -0.1)">
       <use xlink:href="#DejaVuSans-48"/>
       <use x="63.623047" xlink:href="#DejaVuSans-46"/>
       <use x="95.410156" xlink:href="#DejaVuSans-53"/>
       <use x="159.033203" xlink:href="#DejaVuSans-32"/>
       <use x="190.820312" xlink:href="#DejaVuSans-70"/>
       <use x="242.839844" xlink:href="#DejaVuSans-101"/>
       <use x="304.363281" xlink:href="#DejaVuSans-83"/>
       <use x="367.839844" xlink:href="#DejaVuSans-50"/>
       <use x="431.462891" xlink:href="#DejaVuSans-32"/>
       <use x="463.25" xlink:href="#DejaVuSans-43"/>
       <use x="547.039062" xlink:href="#DejaVuSans-32"/>
       <use x="578.826172" xlink:href="#DejaVuSans-50"/>
       <use x="642.449219" xlink:href="#DejaVuSans-32"/>
       <use x="674.236328" xlink:href="#DejaVuSans-70"/>
       <use x="726.255859" xlink:href="#DejaVuSans-101"/>
       <use x="787.779297" xlink:href="#DejaVuSans-79"/>
       <use x="866.490234" xlink:href="#DejaVuSans-32"/>
       <use x="898.277344" xlink:href="#DejaVuSans-45"/>
       <use x="934.361328" xlink:href="#DejaVuSans-62"/>
       <use x="1018.150391" xlink:href="#DejaVuSans-32"/>
       <use x="1049.9375" xlink:href="#DejaVuSans-70"/>
       <use x="1101.957031" xlink:href="#DejaVuSans-101"/>
       <use x="1163.480469" xlink:href="#DejaVuSans-83"/>
       <use x="1226.957031" xlink:href="#DejaVuSans-32"/>
       <use x="1258.744141" xlink:href="#DejaVuSans-43"/>
       <use x="1342.533203" xlink:href="#DejaVuSans-32"/>
       <use x="1374.320312" xlink:href="#DejaVuSans-48"/>
       <use x="1437.943359" xlink:href="#DejaVuSans-46"/>
       <use x="1469.730469" xlink:href="#DejaVuSans-53"/>
       <use x="1533.353516" xlink:href="#DejaVuSans-32"/>
       <use x="1565.140625" xlink:href="#DejaVuSans-70"/>
       <use x="1617.160156" xlink:href="#DejaVuSans-101"/>
       <use x="1678.683594" xlink:href="#DejaVuSans-51"/>
       <use x="1742.306641" xlink:href="#DejaVuSans-79"/>
       <use x="1821.017578" xlink:href="#DejaVuSans-52"/>
      </g>
     </g>
    </g>
    <g id="xtick_4">
     <g id="line2d_4">
      <g>
       <use style="stroke:#000000;stroke-width:0.8;" x="192.247222" xlink:href="#m850ac2f7da" y="202.825"/>
      </g>
     </g>
     <g id="text_4">
      <!-- 2 FeO + 0.5 O2 -&gt; Fe2O3 -->
      <g transform="translate(195.006597 336.939063)rotate(-90)scale(0.1 -0.1)">
       <use xlink:href="#DejaVuSans-50"/>
       <use x="63.623047" xlink:href="#DejaVuSans-32"/>
       <use x="95.410156" xlink:href="#DejaVuSans-70"/>
       <use x="147.429688" xlink:href="#DejaVuSans-101"/>
       <use x="208.953125" xlink:href="#DejaVuSans-79"/>
       <use x="287.664062" xlink:href="#DejaVuSans-32"/>
       <use x="319.451172" xlink:href="#DejaVuSans-43"/>
       <use x="403.240234" xlink:href="#DejaVuSans-32"/>
       <use x="435.027344" xlink:href="#DejaVuSans-48"/>
       <use x="498.650391" xlink:href="#DejaVuSans-46"/>
       <use x="530.4375" xlink:href="#DejaVuSans-53"/>
       <use x="594.060547" xlink:href="#DejaVuSans-32"/>
       <use x="625.847656" xlink:href="#DejaVuSans-79"/>
       <use x="704.558594" xlink:href="#DejaVuSans-50"/>
       <use x="768.181641" xlink:href="#DejaVuSans-32"/>
       <use x="799.96875" xlink:href="#DejaVuSans-45"/>
       <use x="836.052734" xlink:href="#DejaVuSans-62"/>
       <use x="919.841797" xlink:href="#DejaVuSans-32"/>
       <use x="951.628906" xlink:href="#DejaVuSans-70"/>
       <use x="1003.648438" xlink:href="#DejaVuSans-101"/>
       <use x="1065.171875" xlink:href="#DejaVuSans-50"/>
       <use x="1128.794922" xlink:href="#DejaVuSans-79"/>
       <use x="1207.505859" xlink:href="#DejaVuSans-51"/>
      </g>
     </g>
    </g>
    <g id="xtick_5">
     <g id="line2d_5">
      <g>
       <use style="stroke:#000000;stroke-width:0.8;" x="233.875" xlink:href="#m850ac2f7da" y="202.825"/>
      </g>
     </g>
     <g id="text_5">
      <!-- 3 FeO + 0.5 O2 -&gt; Fe3O4 -->
      <g transform="translate(236.634375 336.939063)rotate(-90)scale(0.1 -0.1)">
       <use xlink:href="#DejaVuSans-51"/>
       <use x="63.623047" xlink:href="#DejaVuSans-32"/>
       <use x="95.410156" xlink:href="#DejaVuSans-70"/>
       <use x="147.429688" xlink:href="#DejaVuSans-101"/>
       <use x="208.953125" xlink:href="#DejaVuSans-79"/>
       <use x="287.664062" xlink:href="#DejaVuSans-32"/>
       <use x="319.451172" xlink:href="#DejaVuSans-43"/>
       <use x="403.240234" xlink:href="#DejaVuSans-32"/>
       <use x="435.027344" xlink:href="#DejaVuSans-48"/>
       <use x="498.650391" xlink:href="#DejaVuSans-46"/>
       <use x="530.4375" xlink:href="#DejaVuSans-53"/>
       <use x="594.060547" xlink:href="#DejaVuSans-32"/>
       <use x="625.847656" xlink:href="#DejaVuSans-79"/>
       <use x="704.558594" xlink:href="#DejaVuSans-50"/>
       <use x="768.181641" xlink:href="#DejaVuSans-32"/>
       <use x="799.96875" xlink:href="#DejaVuSans-45"/>
       <use x="836.052734" xlink:href="#DejaVuSans-62"/>
       <use x="919.841797" xlink:href="#DejaVuSans-32"/>
       <use x="951.628906" xlink:href="#DejaVuSans-70"/>
       <use x="1003.648438" xlink:href="#DejaVuSans-101"/>
       <use x="1065.171875" xlink:href="#DejaVuSans-51"/>
       <use x="1128.794922" xlink:href="#DejaVuSans-79"/>
       <use x="1207.505859" xlink:href="#DejaVuSans-52"/>
      </g>
     </g>
    </g>
    <g id="xtick_6">
     <g id="line2d_6">
      <g>
       <use style="stroke:#000000;stroke-width:0.8;" x="275.502778" xlink:href="#m850ac2f7da" y="202.825"/>
      </g>
     </g>
     <g id="text_6">
      <!-- 0.6667 Fe3O4 + 0.1667 O2 -&gt; Fe2O3 -->
      <defs>
       <path d="M 33.015625 40.375 
Q 26.375 40.375 22.484375 35.828125 
Q 18.609375 31.296875 18.609375 23.390625 
Q 18.609375 15.53125 22.484375 10.953125 
Q 26.375 6.390625 33.015625 6.390625 
Q 39.65625 6.390625 43.53125 10.953125 
Q 47.40625 15.53125 47.40625 23.390625 
Q 47.40625 31.296875 43.53125 35.828125 
Q 39.65625 40.375 33.015625 40.375 
z
M 52.59375 71.296875 
L 52.59375 62.3125 
Q 48.875 64.0625 45.09375 64.984375 
Q 41.3125 65.921875 37.59375 65.921875 
Q 27.828125 65.921875 22.671875 59.328125 
Q 17.53125 52.734375 16.796875 39.40625 
Q 19.671875 43.65625 24.015625 45.921875 
Q 28.375 48.1875 33.59375 48.1875 
Q 44.578125 48.1875 50.953125 41.515625 
Q 57.328125 34.859375 57.328125 23.390625 
Q 57.328125 12.15625 50.6875 5.359375 
Q 44.046875 -1.421875 33.015625 -1.421875 
Q 20.359375 -1.421875 13.671875 8.265625 
Q 6.984375 17.96875 6.984375 36.375 
Q 6.984375 53.65625 15.1875 63.9375 
Q 23.390625 74.21875 37.203125 74.21875 
Q 40.921875 74.21875 44.703125 73.484375 
Q 48.484375 72.75 52.59375 71.296875 
z
" id="DejaVuSans-54"/>
       <path d="M 8.203125 72.90625 
L 55.078125 72.90625 
L 55.078125 68.703125 
L 28.609375 0 
L 18.3125 0 
L 43.21875 64.59375 
L 8.203125 64.59375 
z
" id="DejaVuSans-55"/>
      </defs>
      <g transform="translate(278.262153 397.379688)rotate(-90)scale(0.1 -0.1)">
       <use xlink:href="#DejaVuSans-48"/>
       <use x="63.623047" xlink:href="#DejaVuSans-46"/>
       <use x="95.410156" xlink:href="#DejaVuSans-54"/>
       <use x="159.033203" xlink:href="#DejaVuSans-54"/>
       <use x="222.65625" xlink:href="#DejaVuSans-54"/>
       <use x="286.279297" xlink:href="#DejaVuSans-55"/>
       <use x="349.902344" xlink:href="#DejaVuSans-32"/>
       <use x="381.689453" xlink:href="#DejaVuSans-70"/>
       <use x="433.708984" xlink:href="#DejaVuSans-101"/>
       <use x="495.232422" xlink:href="#DejaVuSans-51"/>
       <use x="558.855469" xlink:href="#DejaVuSans-79"/>
       <use x="637.566406" xlink:href="#DejaVuSans-52"/>
       <use x="701.189453" xlink:href="#DejaVuSans-32"/>
       <use x="732.976562" xlink:href="#DejaVuSans-43"/>
       <use x="816.765625" xlink:href="#DejaVuSans-32"/>
       <use x="848.552734" xlink:href="#DejaVuSans-48"/>
       <use x="912.175781" xlink:href="#DejaVuSans-46"/>
       <use x="943.962891" xlink:href="#DejaVuSans-49"/>
       <use x="1007.585938" xlink:href="#DejaVuSans-54"/>
       <use x="1071.208984" xlink:href="#DejaVuSans-54"/>
       <use x="1134.832031" xlink:href="#DejaVuSans-55"/>
       <use x="1198.455078" xlink:href="#DejaVuSans-32"/>
       <use x="1230.242188" xlink:href="#DejaVuSans-79"/>
       <use x="1308.953125" xlink:href="#DejaVuSans-50"/>
       <use x="1372.576172" xlink:href="#DejaVuSans-32"/>
       <use x="1404.363281" xlink:href="#DejaVuSans-45"/>
       <use x="1440.447266" xlink:href="#DejaVuSans-62"/>
       <use x="1524.236328" xlink:href="#DejaVuSans-32"/>
       <use x="1556.023438" xlink:href="#DejaVuSans-70"/>
       <use x="1608.042969" xlink:href="#DejaVuSans-101"/>
       <use x="1669.566406" xlink:href="#DejaVuSans-50"/>
       <use x="1733.189453" xlink:href="#DejaVuSans-79"/>
       <use x="1811.900391" xlink:href="#DejaVuSans-51"/>
      </g>
     </g>
    </g>
    <g id="xtick_7">
     <g id="line2d_7">
      <g>
       <use style="stroke:#000000;stroke-width:0.8;" x="317.130556" xlink:href="#m850ac2f7da" y="202.825"/>
      </g>
     </g>
     <g id="text_7">
      <!-- Fe + 0.5 O2 -&gt; FeO -->
      <g transform="translate(319.889931 306.801563)rotate(-90)scale(0.1 -0.1)">
       <use xlink:href="#DejaVuSans-70"/>
       <use x="52.019531" xlink:href="#DejaVuSans-101"/>
       <use x="113.542969" xlink:href="#DejaVuSans-32"/>
       <use x="145.330078" xlink:href="#DejaVuSans-43"/>
       <use x="229.119141" xlink:href="#DejaVuSans-32"/>
       <use x="260.90625" xlink:href="#DejaVuSans-48"/>
       <use x="324.529297" xlink:href="#DejaVuSans-46"/>
       <use x="356.316406" xlink:href="#DejaVuSans-53"/>
       <use x="419.939453" xlink:href="#DejaVuSans-32"/>
       <use x="451.726562" xlink:href="#DejaVuSans-79"/>
       <use x="530.4375" xlink:href="#DejaVuSans-50"/>
       <use x="594.060547" xlink:href="#DejaVuSans-32"/>
       <use x="625.847656" xlink:href="#DejaVuSans-45"/>
       <use x="661.931641" xlink:href="#DejaVuSans-62"/>
       <use x="745.720703" xlink:href="#DejaVuSans-32"/>
       <use x="777.507812" xlink:href="#DejaVuSans-70"/>
       <use x="829.527344" xlink:href="#DejaVuSans-101"/>
       <use x="891.050781" xlink:href="#DejaVuSans-79"/>
      </g>
     </g>
    </g>
    <g id="xtick_8">
     <g id="line2d_8">
      <g>
       <use style="stroke:#000000;stroke-width:0.8;" x="358.758333" xlink:href="#m850ac2f7da" y="202.825"/>
      </g>
     </g>
     <g id="text_8">
      <!-- 2 Fe + 1.5 O2 -&gt; Fe2O3 -->
      <g transform="translate(361.517708 329.067188)rotate(-90)scale(0.1 -0.1)">
       <use xlink:href="#DejaVuSans-50"/>
       <use x="63.623047" xlink:href="#DejaVuSans-32"/>
       <use x="95.410156" xlink:href="#DejaVuSans-70"/>
       <use x="147.429688" xlink:href="#DejaVuSans-101"/>
       <use x="208.953125" xlink:href="#DejaVuSans-32"/>
       <use x="240.740234" xlink:href="#DejaVuSans-43"/>
       <use x="324.529297" xlink:href="#DejaVuSans-32"/>
       <use x="356.316406" xlink:href="#DejaVuSans-49"/>
       <use x="419.939453" xlink:href="#DejaVuSans-46"/>
       <use x="451.726562" xlink:href="#DejaVuSans-53"/>
       <use x="515.349609" xlink:href="#DejaVuSans-32"/>
       <use x="547.136719" xlink:href="#DejaVuSans-79"/>
       <use x="625.847656" xlink:href="#DejaVuSans-50"/>
       <use x="689.470703" xlink:href="#DejaVuSans-32"/>
       <use x="721.257812" xlink:href="#DejaVuSans-45"/>
       <use x="757.341797" xlink:href="#DejaVuSans-62"/>
       <use x="841.130859" xlink:href="#DejaVuSans-32"/>
       <use x="872.917969" xlink:href="#DejaVuSans-70"/>
       <use x="924.9375" xlink:href="#DejaVuSans-101"/>
       <use x="986.460938" xlink:href="#DejaVuSans-50"/>
       <use x="1050.083984" xlink:href="#DejaVuSans-79"/>
       <use x="1128.794922" xlink:href="#DejaVuSans-51"/>
      </g>
     </g>
    </g>
    <g id="xtick_9">
     <g id="line2d_9">
      <g>
       <use style="stroke:#000000;stroke-width:0.8;" x="400.386111" xlink:href="#m850ac2f7da" y="202.825"/>
      </g>
     </g>
     <g id="text_9">
      <!-- 3 Fe + 2 O2 -&gt; Fe3O4 -->
      <g transform="translate(403.145486 319.526563)rotate(-90)scale(0.1 -0.1)">
       <use xlink:href="#DejaVuSans-51"/>
       <use x="63.623047" xlink:href="#DejaVuSans-32"/>
       <use x="95.410156" xlink:href="#DejaVuSans-70"/>
       <use x="147.429688" xlink:href="#DejaVuSans-101"/>
       <use x="208.953125" xlink:href="#DejaVuSans-32"/>
       <use x="240.740234" xlink:href="#DejaVuSans-43"/>
       <use x="324.529297" xlink:href="#DejaVuSans-32"/>
       <use x="356.316406" xlink:href="#DejaVuSans-50"/>
       <use x="419.939453" xlink:href="#DejaVuSans-32"/>
       <use x="451.726562" xlink:href="#DejaVuSans-79"/>
       <use x="530.4375" xlink:href="#DejaVuSans-50"/>
       <use x="594.060547" xlink:href="#DejaVuSans-32"/>
       <use x="625.847656" xlink:href="#DejaVuSans-45"/>
       <use x="661.931641" xlink:href="#DejaVuSans-62"/>
       <use x="745.720703" xlink:href="#DejaVuSans-32"/>
       <use x="777.507812" xlink:href="#DejaVuSans-70"/>
       <use x="829.527344" xlink:href="#DejaVuSans-101"/>
       <use x="891.050781" xlink:href="#DejaVuSans-51"/>
       <use x="954.673828" xlink:href="#DejaVuSans-79"/>
       <use x="1033.384766" xlink:href="#DejaVuSans-52"/>
      </g>
     </g>
    </g>
    <g id="text_10">
     <!-- Reaction -->
     <defs>
      <path d="M 44.390625 34.1875 
Q 47.5625 33.109375 50.5625 29.59375 
Q 53.5625 26.078125 56.59375 19.921875 
L 66.609375 0 
L 56 0 
L 46.6875 18.703125 
Q 43.0625 26.03125 39.671875 28.421875 
Q 36.28125 30.8125 30.421875 30.8125 
L 19.671875 30.8125 
L 19.671875 0 
L 9.8125 0 
L 9.8125 72.90625 
L 32.078125 72.90625 
Q 44.578125 72.90625 50.734375 67.671875 
Q 56.890625 62.453125 56.890625 51.90625 
Q 56.890625 45.015625 53.6875 40.46875 
Q 50.484375 35.9375 44.390625 34.1875 
z
M 19.671875 64.796875 
L 19.671875 38.921875 
L 32.078125 38.921875 
Q 39.203125 38.921875 42.84375 42.21875 
Q 46.484375 45.515625 46.484375 51.90625 
Q 46.484375 58.296875 42.84375 61.546875 
Q 39.203125 64.796875 32.078125 64.796875 
z
" id="DejaVuSans-82"/>
      <path d="M 34.28125 27.484375 
Q 23.390625 27.484375 19.1875 25 
Q 14.984375 22.515625 14.984375 16.5 
Q 14.984375 11.71875 18.140625 8.90625 
Q 21.296875 6.109375 26.703125 6.109375 
Q 34.1875 6.109375 38.703125 11.40625 
Q 43.21875 16.703125 43.21875 25.484375 
L 43.21875 27.484375 
z
M 52.203125 31.203125 
L 52.203125 0 
L 43.21875 0 
L 43.21875 8.296875 
Q 40.140625 3.328125 35.546875 0.953125 
Q 30.953125 -1.421875 24.3125 -1.421875 
Q 15.921875 -1.421875 10.953125 3.296875 
Q 6 8.015625 6 15.921875 
Q 6 25.140625 12.171875 29.828125 
Q 18.359375 34.515625 30.609375 34.515625 
L 43.21875 34.515625 
L 43.21875 35.40625 
Q 43.21875 41.609375 39.140625 45 
Q 35.0625 48.390625 27.6875 48.390625 
Q 23 48.390625 18.546875 47.265625 
Q 14.109375 46.140625 10.015625 43.890625 
L 10.015625 52.203125 
Q 14.9375 54.109375 19.578125 55.046875 
Q 24.21875 56 28.609375 56 
Q 40.484375 56 46.34375 49.84375 
Q 52.203125 43.703125 52.203125 31.203125 
z
" id="DejaVuSans-97"/>
      <path d="M 48.78125 52.59375 
L 48.78125 44.1875 
Q 44.96875 46.296875 41.140625 47.34375 
Q 37.3125 48.390625 33.40625 48.390625 
Q 24.65625 48.390625 19.8125 42.84375 
Q 14.984375 37.3125 14.984375 27.296875 
Q 14.984375 17.28125 19.8125 11.734375 
Q 24.65625 6.203125 33.40625 6.203125 
Q 37.3125 6.203125 41.140625 7.25 
Q 44.96875 8.296875 48.78125 10.40625 
L 48.78125 2.09375 
Q 45.015625 0.34375 40.984375 -0.53125 
Q 36.96875 -1.421875 32.421875 -1.421875 
Q 20.0625 -1.421875 12.78125 6.34375 
Q 5.515625 14.109375 5.515625 27.296875 
Q 5.515625 40.671875 12.859375 48.328125 
Q 20.21875 56 33.015625 56 
Q 37.15625 56 41.109375 55.140625 
Q 45.0625 54.296875 48.78125 52.59375 
z
" id="DejaVuSans-99"/>
      <path d="M 18.3125 70.21875 
L 18.3125 54.6875 
L 36.8125 54.6875 
L 36.8125 47.703125 
L 18.3125 47.703125 
L 18.3125 18.015625 
Q 18.3125 11.328125 20.140625 9.421875 
Q 21.96875 7.515625 27.59375 7.515625 
L 36.8125 7.515625 
L 36.8125 0 
L 27.59375 0 
Q 17.1875 0 13.234375 3.875 
Q 9.28125 7.765625 9.28125 18.015625 
L 9.28125 47.703125 
L 2.6875 47.703125 
L 2.6875 54.6875 
L 9.28125 54.6875 
L 9.28125 70.21875 
z
" id="DejaVuSans-116"/>
      <path d="M 30.609375 48.390625 
Q 23.390625 48.390625 19.1875 42.75 
Q 14.984375 37.109375 14.984375 27.296875 
Q 14.984375 17.484375 19.15625 11.84375 
Q 23.34375 6.203125 30.609375 6.203125 
Q 37.796875 6.203125 41.984375 11.859375 
Q 46.1875 17.53125 46.1875 27.296875 
Q 46.1875 37.015625 41.984375 42.703125 
Q 37.796875 48.390625 30.609375 48.390625 
z
M 30.609375 56 
Q 42.328125 56 49.015625 48.375 
Q 55.71875 40.765625 55.71875 27.296875 
Q 55.71875 13.875 49.015625 6.21875 
Q 42.328125 -1.421875 30.609375 -1.421875 
Q 18.84375 -1.421875 12.171875 6.21875 
Q 5.515625 13.875 5.515625 27.296875 
Q 5.515625 40.765625 12.171875 48.375 
Q 18.84375 56 30.609375 56 
z
" id="DejaVuSans-111"/>
      <path d="M 54.890625 33.015625 
L 54.890625 0 
L 45.90625 0 
L 45.90625 32.71875 
Q 45.90625 40.484375 42.875 44.328125 
Q 39.84375 48.1875 33.796875 48.1875 
Q 26.515625 48.1875 22.3125 43.546875 
Q 18.109375 38.921875 18.109375 30.90625 
L 18.109375 0 
L 9.078125 0 
L 9.078125 54.6875 
L 18.109375 54.6875 
L 18.109375 46.1875 
Q 21.34375 51.125 25.703125 53.5625 
Q 30.078125 56 35.796875 56 
Q 45.21875 56 50.046875 50.171875 
Q 54.890625 44.34375 54.890625 33.015625 
z
" id="DejaVuSans-110"/>
     </defs>
     <g transform="translate(212.158594 419.429688)scale(0.1 -0.1)">
      <use xlink:href="#DejaVuSans-82"/>
      <use x="64.982422" xlink:href="#DejaVuSans-101"/>
      <use x="126.505859" xlink:href="#DejaVuSans-97"/>
      <use x="187.785156" xlink:href="#DejaVuSans-99"/>
      <use x="242.765625" xlink:href="#DejaVuSans-116"/>
      <use x="281.974609" xlink:href="#DejaVuSans-105"/>
      <use x="309.757812" xlink:href="#DejaVuSans-111"/>
      <use x="370.939453" xlink:href="#DejaVuSans-110"/>
     </g>
    </g>
   </g>
   <g id="matplotlib.axis_2">
    <g id="ytick_1">
     <g id="line2d_10">
      <defs>
       <path d="M 0 0 
L -3.5 0 
" id="m3c9e696b56" style="stroke:#000000;stroke-width:0.8;"/>
      </defs>
      <g>
       <use style="stroke:#000000;stroke-width:0.8;" x="46.55" xlink:href="#m3c9e696b56" y="202.825"/>
      </g>
     </g>
     <g id="text_11">
      <!-- −4 -->
      <defs>
       <path d="M 10.59375 35.5 
L 73.1875 35.5 
L 73.1875 27.203125 
L 10.59375 27.203125 
z
" id="DejaVuSans-8722"/>
      </defs>
      <g transform="translate(24.807812 206.624219)scale(0.1 -0.1)">
       <use xlink:href="#DejaVuSans-8722"/>
       <use x="83.789062" xlink:href="#DejaVuSans-52"/>
      </g>
     </g>
    </g>
    <g id="ytick_2">
     <g id="line2d_11">
      <g>
       <use style="stroke:#000000;stroke-width:0.8;" x="46.55" xlink:href="#m3c9e696b56" y="173.282692"/>
      </g>
     </g>
     <g id="text_12">
      <!-- −3 -->
      <g transform="translate(24.807812 177.081911)scale(0.1 -0.1)">
       <use xlink:href="#DejaVuSans-8722"/>
       <use x="83.789062" xlink:href="#DejaVuSans-51"/>
      </g>
     </g>
    </g>
    <g id="ytick_3">
     <g id="line2d_12">
      <g>
       <use style="stroke:#000000;stroke-width:0.8;" x="46.55" xlink:href="#m3c9e696b56" y="143.740385"/>
      </g>
     </g>
     <g id="text_13">
      <!-- −2 -->
      <g transform="translate(24.807812 147.539603)scale(0.1 -0.1)">
       <use xlink:href="#DejaVuSans-8722"/>
       <use x="83.789062" xlink:href="#DejaVuSans-50"/>
      </g>
     </g>
    </g>
    <g id="ytick_4">
     <g id="line2d_13">
      <g>
       <use style="stroke:#000000;stroke-width:0.8;" x="46.55" xlink:href="#m3c9e696b56" y="114.198077"/>
      </g>
     </g>
     <g id="text_14">
      <!-- −1 -->
      <g transform="translate(24.807812 117.997296)scale(0.1 -0.1)">
       <use xlink:href="#DejaVuSans-8722"/>
       <use x="83.789062" xlink:href="#DejaVuSans-49"/>
      </g>
     </g>
    </g>
    <g id="ytick_5">
     <g id="line2d_14">
      <g>
       <use style="stroke:#000000;stroke-width:0.8;" x="46.55" xlink:href="#m3c9e696b56" y="84.655769"/>
      </g>
     </g>
     <g id="text_15">
      <!-- 0 -->
      <g transform="translate(33.1875 88.454988)scale(0.1 -0.1)">
       <use xlink:href="#DejaVuSans-48"/>
      </g>
     </g>
    </g>
    <g id="ytick_6">
     <g id="line2d_15">
      <g>
       <use style="stroke:#000000;stroke-width:0.8;" x="46.55" xlink:href="#m3c9e696b56" y="55.113462"/>
      </g>
     </g>
     <g id="text_16">
      <!-- 1 -->
      <g transform="translate(33.1875 58.91268)scale(0.1 -0.1)">
       <use xlink:href="#DejaVuSans-49"/>
      </g>
     </g>
    </g>
    <g id="ytick_7">
     <g id="line2d_16">
      <g>
       <use style="stroke:#000000;stroke-width:0.8;" x="46.55" xlink:href="#m3c9e696b56" y="25.571154"/>
      </g>
     </g>
     <g id="text_17">
      <!-- 2 -->
      <g transform="translate(33.1875 29.370373)scale(0.1 -0.1)">
       <use xlink:href="#DejaVuSans-50"/>
      </g>
     </g>
    </g>
    <g id="text_18">
     <!-- Error (eV/f.u.) -->
     <defs>
      <path d="M 9.8125 72.90625 
L 55.90625 72.90625 
L 55.90625 64.59375 
L 19.671875 64.59375 
L 19.671875 43.015625 
L 54.390625 43.015625 
L 54.390625 34.71875 
L 19.671875 34.71875 
L 19.671875 8.296875 
L 56.78125 8.296875 
L 56.78125 0 
L 9.8125 0 
z
" id="DejaVuSans-69"/>
      <path d="M 41.109375 46.296875 
Q 39.59375 47.171875 37.8125 47.578125 
Q 36.03125 48 33.890625 48 
Q 26.265625 48 22.1875 43.046875 
Q 18.109375 38.09375 18.109375 28.8125 
L 18.109375 0 
L 9.078125 0 
L 9.078125 54.6875 
L 18.109375 54.6875 
L 18.109375 46.1875 
Q 20.953125 51.171875 25.484375 53.578125 
Q 30.03125 56 36.53125 56 
Q 37.453125 56 38.578125 55.875 
Q 39.703125 55.765625 41.0625 55.515625 
z
" id="DejaVuSans-114"/>
      <path d="M 31 75.875 
Q 24.46875 64.65625 21.28125 53.65625 
Q 18.109375 42.671875 18.109375 31.390625 
Q 18.109375 20.125 21.3125 9.0625 
Q 24.515625 -2 31 -13.1875 
L 23.1875 -13.1875 
Q 15.875 -1.703125 12.234375 9.375 
Q 8.59375 20.453125 8.59375 31.390625 
Q 8.59375 42.28125 12.203125 53.3125 
Q 15.828125 64.359375 23.1875 75.875 
z
" id="DejaVuSans-40"/>
      <path d="M 28.609375 0 
L 0.78125 72.90625 
L 11.078125 72.90625 
L 34.1875 11.53125 
L 57.328125 72.90625 
L 67.578125 72.90625 
L 39.796875 0 
z
" id="DejaVuSans-86"/>
      <path d="M 25.390625 72.90625 
L 33.6875 72.90625 
L 8.296875 -9.28125 
L 0 -9.28125 
z
" id="DejaVuSans-47"/>
      <path d="M 37.109375 75.984375 
L 37.109375 68.5 
L 28.515625 68.5 
Q 23.6875 68.5 21.796875 66.546875 
Q 19.921875 64.59375 19.921875 59.515625 
L 19.921875 54.6875 
L 34.71875 54.6875 
L 34.71875 47.703125 
L 19.921875 47.703125 
L 19.921875 0 
L 10.890625 0 
L 10.890625 47.703125 
L 2.296875 47.703125 
L 2.296875 54.6875 
L 10.890625 54.6875 
L 10.890625 58.5 
Q 10.890625 67.625 15.140625 71.796875 
Q 19.390625 75.984375 28.609375 75.984375 
z
" id="DejaVuSans-102"/>
      <path d="M 8.5 21.578125 
L 8.5 54.6875 
L 17.484375 54.6875 
L 17.484375 21.921875 
Q 17.484375 14.15625 20.5 10.265625 
Q 23.53125 6.390625 29.59375 6.390625 
Q 36.859375 6.390625 41.078125 11.03125 
Q 45.3125 15.671875 45.3125 23.6875 
L 45.3125 54.6875 
L 54.296875 54.6875 
L 54.296875 0 
L 45.3125 0 
L 45.3125 8.40625 
Q 42.046875 3.421875 37.71875 1 
Q 33.40625 -1.421875 27.6875 -1.421875 
Q 18.265625 -1.421875 13.375 4.4375 
Q 8.5 10.296875 8.5 21.578125 
z
M 31.109375 56 
z
" id="DejaVuSans-117"/>
      <path d="M 8.015625 75.875 
L 15.828125 75.875 
Q 23.140625 64.359375 26.78125 53.3125 
Q 30.421875 42.28125 30.421875 31.390625 
Q 30.421875 20.453125 26.78125 9.375 
Q 23.140625 -1.703125 15.828125 -13.1875 
L 8.015625 -13.1875 
Q 14.5 -2 17.703125 9.0625 
Q 20.90625 20.125 20.90625 31.390625 
Q 20.90625 42.671875 17.703125 53.65625 
Q 14.5 64.65625 8.015625 75.875 
z
" id="DejaVuSans-41"/>
     </defs>
     <g transform="translate(18.728125 140.414063)rotate(-90)scale(0.1 -0.1)">
      <use xlink:href="#DejaVuSans-69"/>
      <use x="63.183594" xlink:href="#DejaVuSans-114"/>
      <use x="102.546875" xlink:href="#DejaVuSans-114"/>
      <use x="141.410156" xlink:href="#DejaVuSans-111"/>
      <use x="202.591797" xlink:href="#DejaVuSans-114"/>
      <use x="243.705078" xlink:href="#DejaVuSans-32"/>
      <use x="275.492188" xlink:href="#DejaVuSans-40"/>
      <use x="314.505859" xlink:href="#DejaVuSans-101"/>
      <use x="376.029297" xlink:href="#DejaVuSans-86"/>
      <use x="444.4375" xlink:href="#DejaVuSans-47"/>
      <use x="478.128906" xlink:href="#DejaVuSans-102"/>
      <use x="506.083984" xlink:href="#DejaVuSans-46"/>
      <use x="537.871094" xlink:href="#DejaVuSans-117"/>
      <use x="601.25" xlink:href="#DejaVuSans-46"/>
      <use x="633.037109" xlink:href="#DejaVuSans-41"/>
     </g>
    </g>
   </g>
   <g id="LineCollection_1">
    <path clip-path="url(#p019e0b918e)" d="M 171.433333 232.367308 
L 171.433333 -1 
" style="fill:none;stroke:#000000;stroke-dasharray:5.55,2.4;stroke-dashoffset:0;stroke-width:1.5;"/>
   </g>
   <g id="LineCollection_2">
    <path clip-path="url(#p019e0b918e)" d="M 296.316667 232.367308 
L 296.316667 -1 
" style="fill:none;stroke:#000000;stroke-dasharray:5.55,2.4;stroke-dashoffset:0;stroke-width:1.5;"/>
   </g>
   <g id="patch_39">
    <path d="M 46.55 202.825 
L 46.55 10.8 
" style="fill:none;stroke:#000000;stroke-linecap:square;stroke-linejoin:miter;stroke-width:0.8;"/>
   </g>
   <g id="patch_40">
    <path d="M 421.2 202.825 
L 421.2 10.8 
" style="fill:none;stroke:#000000;stroke-linecap:square;stroke-linejoin:miter;stroke-width:0.8;"/>
   </g>
   <g id="patch_41">
    <path d="M 46.55 202.825 
L 421.2 202.825 
" style="fill:none;stroke:#000000;stroke-linecap:square;stroke-linejoin:miter;stroke-width:0.8;"/>
   </g>
   <g id="patch_42">
    <path d="M 46.55 10.8 
L 421.2 10.8 
" style="fill:none;stroke:#000000;stroke-linecap:square;stroke-linejoin:miter;stroke-width:0.8;"/>
   </g>
   <g id="text_19">
    <!-- Sulphide to oxide -->
    <defs>
     <path d="M 9.421875 75.984375 
L 18.40625 75.984375 
L 18.40625 0 
L 9.421875 0 
z
" id="DejaVuSans-108"/>
     <path d="M 18.109375 8.203125 
L 18.109375 -20.796875 
L 9.078125 -20.796875 
L 9.078125 54.6875 
L 18.109375 54.6875 
L 18.109375 46.390625 
Q 20.953125 51.265625 25.265625 53.625 
Q 29.59375 56 35.59375 56 
Q 45.5625 56 51.78125 48.09375 
Q 58.015625 40.1875 58.015625 27.296875 
Q 58.015625 14.40625 51.78125 6.484375 
Q 45.5625 -1.421875 35.59375 -1.421875 
Q 29.59375 -1.421875 25.265625 0.953125 
Q 20.953125 3.328125 18.109375 8.203125 
z
M 48.6875 27.296875 
Q 48.6875 37.203125 44.609375 42.84375 
Q 40.53125 48.484375 33.40625 48.484375 
Q 26.265625 48.484375 22.1875 42.84375 
Q 18.109375 37.203125 18.109375 27.296875 
Q 18.109375 17.390625 22.1875 11.75 
Q 26.265625 6.109375 33.40625 6.109375 
Q 40.53125 6.109375 44.609375 11.75 
Q 48.6875 17.390625 48.6875 27.296875 
z
" id="DejaVuSans-112"/>
     <path d="M 54.890625 33.015625 
L 54.890625 0 
L 45.90625 0 
L 45.90625 32.71875 
Q 45.90625 40.484375 42.875 44.328125 
Q 39.84375 48.1875 33.796875 48.1875 
Q 26.515625 48.1875 22.3125 43.546875 
Q 18.109375 38.921875 18.109375 30.90625 
L 18.109375 0 
L 9.078125 0 
L 9.078125 75.984375 
L 18.109375 75.984375 
L 18.109375 46.1875 
Q 21.34375 51.125 25.703125 53.5625 
Q 30.078125 56 35.796875 56 
Q 45.21875 56 50.046875 50.171875 
Q 54.890625 44.34375 54.890625 33.015625 
z
" id="DejaVuSans-104"/>
     <path d="M 45.40625 46.390625 
L 45.40625 75.984375 
L 54.390625 75.984375 
L 54.390625 0 
L 45.40625 0 
L 45.40625 8.203125 
Q 42.578125 3.328125 38.25 0.953125 
Q 33.9375 -1.421875 27.875 -1.421875 
Q 17.96875 -1.421875 11.734375 6.484375 
Q 5.515625 14.40625 5.515625 27.296875 
Q 5.515625 40.1875 11.734375 48.09375 
Q 17.96875 56 27.875 56 
Q 33.9375 56 38.25 53.625 
Q 42.578125 51.265625 45.40625 46.390625 
z
M 14.796875 27.296875 
Q 14.796875 17.390625 18.875 11.75 
Q 22.953125 6.109375 30.078125 6.109375 
Q 37.203125 6.109375 41.296875 11.75 
Q 45.40625 17.390625 45.40625 27.296875 
Q 45.40625 37.203125 41.296875 42.84375 
Q 37.203125 48.484375 30.078125 48.484375 
Q 22.953125 48.484375 18.875 42.84375 
Q 14.796875 37.203125 14.796875 27.296875 
z
" id="DejaVuSans-100"/>
     <path d="M 54.890625 54.6875 
L 35.109375 28.078125 
L 55.90625 0 
L 45.3125 0 
L 29.390625 21.484375 
L 13.484375 0 
L 2.875 0 
L 24.125 28.609375 
L 4.6875 54.6875 
L 15.28125 54.6875 
L 29.78125 35.203125 
L 44.28125 54.6875 
z
" id="DejaVuSans-120"/>
    </defs>
    <g transform="translate(65.576823 40.342308)scale(0.1 -0.1)">
     <use xlink:href="#DejaVuSans-83"/>
     <use x="63.476562" xlink:href="#DejaVuSans-117"/>
     <use x="126.855469" xlink:href="#DejaVuSans-108"/>
     <use x="154.638672" xlink:href="#DejaVuSans-112"/>
     <use x="218.115234" xlink:href="#DejaVuSans-104"/>
     <use x="281.494141" xlink:href="#DejaVuSans-105"/>
     <use x="309.277344" xlink:href="#DejaVuSans-100"/>
     <use x="372.753906" xlink:href="#DejaVuSans-101"/>
     <use x="434.277344" xlink:href="#DejaVuSans-32"/>
     <use x="466.064453" xlink:href="#DejaVuSans-116"/>
     <use x="505.273438" xlink:href="#DejaVuSans-111"/>
     <use x="566.455078" xlink:href="#DejaVuSans-32"/>
     <use x="598.242188" xlink:href="#DejaVuSans-111"/>
     <use x="656.298828" xlink:href="#DejaVuSans-120"/>
     <use x="715.478516" xlink:href="#DejaVuSans-105"/>
     <use x="743.261719" xlink:href="#DejaVuSans-100"/>
     <use x="806.738281" xlink:href="#DejaVuSans-101"/>
    </g>
   </g>
   <g id="text_20">
    <!-- Fitting U for Fe -->
    <defs>
     <path d="M 45.40625 27.984375 
Q 45.40625 37.75 41.375 43.109375 
Q 37.359375 48.484375 30.078125 48.484375 
Q 22.859375 48.484375 18.828125 43.109375 
Q 14.796875 37.75 14.796875 27.984375 
Q 14.796875 18.265625 18.828125 12.890625 
Q 22.859375 7.515625 30.078125 7.515625 
Q 37.359375 7.515625 41.375 12.890625 
Q 45.40625 18.265625 45.40625 27.984375 
z
M 54.390625 6.78125 
Q 54.390625 -7.171875 48.1875 -13.984375 
Q 42 -20.796875 29.203125 -20.796875 
Q 24.46875 -20.796875 20.265625 -20.09375 
Q 16.0625 -19.390625 12.109375 -17.921875 
L 12.109375 -9.1875 
Q 16.0625 -11.328125 19.921875 -12.34375 
Q 23.78125 -13.375 27.78125 -13.375 
Q 36.625 -13.375 41.015625 -8.765625 
Q 45.40625 -4.15625 45.40625 5.171875 
L 45.40625 9.625 
Q 42.625 4.78125 38.28125 2.390625 
Q 33.9375 0 27.875 0 
Q 17.828125 0 11.671875 7.65625 
Q 5.515625 15.328125 5.515625 27.984375 
Q 5.515625 40.671875 11.671875 48.328125 
Q 17.828125 56 27.875 56 
Q 33.9375 56 38.28125 53.609375 
Q 42.625 51.21875 45.40625 46.390625 
L 45.40625 54.6875 
L 54.390625 54.6875 
z
" id="DejaVuSans-103"/>
     <path d="M 8.6875 72.90625 
L 18.609375 72.90625 
L 18.609375 28.609375 
Q 18.609375 16.890625 22.84375 11.734375 
Q 27.09375 6.59375 36.625 6.59375 
Q 46.09375 6.59375 50.34375 11.734375 
Q 54.59375 16.890625 54.59375 28.609375 
L 54.59375 72.90625 
L 64.5 72.90625 
L 64.5 27.390625 
Q 64.5 13.140625 57.4375 5.859375 
Q 50.390625 -1.421875 36.625 -1.421875 
Q 22.796875 -1.421875 15.734375 5.859375 
Q 8.6875 13.140625 8.6875 27.390625 
z
" id="DejaVuSans-85"/>
    </defs>
    <g transform="translate(197.341406 40.342308)scale(0.1 -0.1)">
     <use xlink:href="#DejaVuSans-70"/>
     <use x="50.269531" xlink:href="#DejaVuSans-105"/>
     <use x="78.052734" xlink:href="#DejaVuSans-116"/>
     <use x="117.261719" xlink:href="#DejaVuSans-116"/>
     <use x="156.470703" xlink:href="#DejaVuSans-105"/>
     <use x="184.253906" xlink:href="#DejaVuSans-110"/>
     <use x="247.632812" xlink:href="#DejaVuSans-103"/>
     <use x="311.109375" xlink:href="#DejaVuSans-32"/>
     <use x="342.896484" xlink:href="#DejaVuSans-85"/>
     <use x="416.089844" xlink:href="#DejaVuSans-32"/>
     <use x="447.876953" xlink:href="#DejaVuSans-102"/>
     <use x="483.082031" xlink:href="#DejaVuSans-111"/>
     <use x="544.263672" xlink:href="#DejaVuSans-114"/>
     <use x="585.376953" xlink:href="#DejaVuSans-32"/>
     <use x="617.164062" xlink:href="#DejaVuSans-70"/>
     <use x="669.183594" xlink:href="#DejaVuSans-101"/>
    </g>
   </g>
   <g id="text_21">
    <!-- GGA+U/GGA mixing -->
    <defs>
     <path d="M 59.515625 10.40625 
L 59.515625 29.984375 
L 43.40625 29.984375 
L 43.40625 38.09375 
L 69.28125 38.09375 
L 69.28125 6.78125 
Q 63.578125 2.734375 56.6875 0.65625 
Q 49.8125 -1.421875 42 -1.421875 
Q 24.90625 -1.421875 15.25 8.5625 
Q 5.609375 18.5625 5.609375 36.375 
Q 5.609375 54.25 15.25 64.234375 
Q 24.90625 74.21875 42 74.21875 
Q 49.125 74.21875 55.546875 72.453125 
Q 61.96875 70.703125 67.390625 67.28125 
L 67.390625 56.78125 
Q 61.921875 61.421875 55.765625 63.765625 
Q 49.609375 66.109375 42.828125 66.109375 
Q 29.4375 66.109375 22.71875 58.640625 
Q 16.015625 51.171875 16.015625 36.375 
Q 16.015625 21.625 22.71875 14.15625 
Q 29.4375 6.6875 42.828125 6.6875 
Q 48.046875 6.6875 52.140625 7.59375 
Q 56.25 8.5 59.515625 10.40625 
z
" id="DejaVuSans-71"/>
     <path d="M 34.1875 63.1875 
L 20.796875 26.90625 
L 47.609375 26.90625 
z
M 28.609375 72.90625 
L 39.796875 72.90625 
L 67.578125 0 
L 57.328125 0 
L 50.6875 18.703125 
L 17.828125 18.703125 
L 11.1875 0 
L 0.78125 0 
z
" id="DejaVuSans-65"/>
     <path d="M 52 44.1875 
Q 55.375 50.25 60.0625 53.125 
Q 64.75 56 71.09375 56 
Q 79.640625 56 84.28125 50.015625 
Q 88.921875 44.046875 88.921875 33.015625 
L 88.921875 0 
L 79.890625 0 
L 79.890625 32.71875 
Q 79.890625 40.578125 77.09375 44.375 
Q 74.3125 48.1875 68.609375 48.1875 
Q 61.625 48.1875 57.5625 43.546875 
Q 53.515625 38.921875 53.515625 30.90625 
L 53.515625 0 
L 44.484375 0 
L 44.484375 32.71875 
Q 44.484375 40.625 41.703125 44.40625 
Q 38.921875 48.1875 33.109375 48.1875 
Q 26.21875 48.1875 22.15625 43.53125 
Q 18.109375 38.875 18.109375 30.90625 
L 18.109375 0 
L 9.078125 0 
L 9.078125 54.6875 
L 18.109375 54.6875 
L 18.109375 46.1875 
Q 21.1875 51.21875 25.484375 53.609375 
Q 29.78125 56 35.6875 56 
Q 41.65625 56 45.828125 52.96875 
Q 50 49.953125 52 44.1875 
z
" id="DejaVuSans-109"/>
    </defs>
    <g transform="translate(308.347396 40.342308)scale(0.1 -0.1)">
     <use xlink:href="#DejaVuSans-71"/>
     <use x="77.490234" xlink:href="#DejaVuSans-71"/>
     <use x="154.980469" xlink:href="#DejaVuSans-65"/>
     <use x="223.388672" xlink:href="#DejaVuSans-43"/>
     <use x="307.177734" xlink:href="#DejaVuSans-85"/>
     <use x="380.371094" xlink:href="#DejaVuSans-47"/>
     <use x="414.0625" xlink:href="#DejaVuSans-71"/>
     <use x="491.552734" xlink:href="#DejaVuSans-71"/>
     <use x="569.042969" xlink:href="#DejaVuSans-65"/>
     <use x="637.451172" xlink:href="#DejaVuSans-32"/>
     <use x="669.238281" xlink:href="#DejaVuSans-109"/>
     <use x="766.650391" xlink:href="#DejaVuSans-105"/>
     <use x="794.433594" xlink:href="#DejaVuSans-120"/>
     <use x="853.613281" xlink:href="#DejaVuSans-105"/>
     <use x="881.396484" xlink:href="#DejaVuSans-110"/>
     <use x="944.775391" xlink:href="#DejaVuSans-103"/>
    </g>
   </g>
   <g id="legend_1">
    <g id="patch_43">
     <path d="M 53.55 197.825 
L 138.951563 197.825 
Q 140.951563 197.825 140.951563 195.825 
L 140.951563 138.1125 
Q 140.951563 136.1125 138.951563 136.1125 
L 53.55 136.1125 
Q 51.55 136.1125 51.55 138.1125 
L 51.55 195.825 
Q 51.55 197.825 53.55 197.825 
z
" style="fill:#ffffff;opacity:0.8;stroke:#cccccc;stroke-linejoin:miter;"/>
    </g>
    <g id="patch_44">
     <path d="M 55.55 147.710938 
L 75.55 147.710938 
L 75.55 140.710938 
L 55.55 140.710938 
z
" style="fill:#1f77b4;"/>
    </g>
    <g id="text_22">
     <!-- All -->
     <g transform="translate(83.55 147.710938)scale(0.1 -0.1)">
      <use xlink:href="#DejaVuSans-65"/>
      <use x="68.408203" xlink:href="#DejaVuSans-108"/>
      <use x="96.191406" xlink:href="#DejaVuSans-108"/>
     </g>
    </g>
    <g id="patch_45">
     <path d="M 55.55 162.389063 
L 75.55 162.389063 
L 75.55 155.389063 
L 55.55 155.389063 
z
" style="fill:#ff7f0e;"/>
    </g>
    <g id="text_23">
     <!-- Oxide only -->
     <defs>
      <path d="M 32.171875 -5.078125 
Q 28.375 -14.84375 24.75 -17.8125 
Q 21.140625 -20.796875 15.09375 -20.796875 
L 7.90625 -20.796875 
L 7.90625 -13.28125 
L 13.1875 -13.28125 
Q 16.890625 -13.28125 18.9375 -11.515625 
Q 21 -9.765625 23.484375 -3.21875 
L 25.09375 0.875 
L 2.984375 54.6875 
L 12.5 54.6875 
L 29.59375 11.921875 
L 46.6875 54.6875 
L 56.203125 54.6875 
z
" id="DejaVuSans-121"/>
     </defs>
     <g transform="translate(83.55 162.389063)scale(0.1 -0.1)">
      <use xlink:href="#DejaVuSans-79"/>
      <use x="78.710938" xlink:href="#DejaVuSans-120"/>
      <use x="137.890625" xlink:href="#DejaVuSans-105"/>
      <use x="165.673828" xlink:href="#DejaVuSans-100"/>
      <use x="229.150391" xlink:href="#DejaVuSans-101"/>
      <use x="290.673828" xlink:href="#DejaVuSans-32"/>
      <use x="322.460938" xlink:href="#DejaVuSans-111"/>
      <use x="383.642578" xlink:href="#DejaVuSans-110"/>
      <use x="447.021484" xlink:href="#DejaVuSans-108"/>
      <use x="474.804688" xlink:href="#DejaVuSans-121"/>
     </g>
    </g>
    <g id="patch_46">
     <path d="M 55.55 177.067187 
L 75.55 177.067187 
L 75.55 170.067187 
L 55.55 170.067187 
z
" style="fill:#2ca02c;"/>
    </g>
    <g id="text_24">
     <!-- MP-ORIG -->
     <defs>
      <path d="M 9.8125 72.90625 
L 24.515625 72.90625 
L 43.109375 23.296875 
L 61.8125 72.90625 
L 76.515625 72.90625 
L 76.515625 0 
L 66.890625 0 
L 66.890625 64.015625 
L 48.09375 14.015625 
L 38.1875 14.015625 
L 19.390625 64.015625 
L 19.390625 0 
L 9.8125 0 
z
" id="DejaVuSans-77"/>
      <path d="M 19.671875 64.796875 
L 19.671875 37.40625 
L 32.078125 37.40625 
Q 38.96875 37.40625 42.71875 40.96875 
Q 46.484375 44.53125 46.484375 51.125 
Q 46.484375 57.671875 42.71875 61.234375 
Q 38.96875 64.796875 32.078125 64.796875 
z
M 9.8125 72.90625 
L 32.078125 72.90625 
Q 44.34375 72.90625 50.609375 67.359375 
Q 56.890625 61.8125 56.890625 51.125 
Q 56.890625 40.328125 50.609375 34.8125 
Q 44.34375 29.296875 32.078125 29.296875 
L 19.671875 29.296875 
L 19.671875 0 
L 9.8125 0 
z
" id="DejaVuSans-80"/>
      <path d="M 9.8125 72.90625 
L 19.671875 72.90625 
L 19.671875 0 
L 9.8125 0 
z
" id="DejaVuSans-73"/>
     </defs>
     <g transform="translate(83.55 177.067187)scale(0.1 -0.1)">
      <use xlink:href="#DejaVuSans-77"/>
      <use x="86.279297" xlink:href="#DejaVuSans-80"/>
      <use x="144.332031" xlink:href="#DejaVuSans-45"/>
      <use x="183.166016" xlink:href="#DejaVuSans-79"/>
      <use x="261.876953" xlink:href="#DejaVuSans-82"/>
      <use x="331.359375" xlink:href="#DejaVuSans-73"/>
      <use x="360.851562" xlink:href="#DejaVuSans-71"/>
     </g>
    </g>
    <g id="patch_47">
     <path d="M 55.55 191.745313 
L 75.55 191.745313 
L 75.55 184.745313 
L 55.55 184.745313 
z
" style="fill:#d62728;"/>
    </g>
    <g id="text_25">
     <!-- MP-2020 -->
     <g transform="translate(83.55 191.745313)scale(0.1 -0.1)">
      <use xlink:href="#DejaVuSans-77"/>
      <use x="86.279297" xlink:href="#DejaVuSans-80"/>
      <use x="144.332031" xlink:href="#DejaVuSans-45"/>
      <use x="180.416016" xlink:href="#DejaVuSans-50"/>
      <use x="244.039062" xlink:href="#DejaVuSans-48"/>
      <use x="307.662109" xlink:href="#DejaVuSans-50"/>
      <use x="371.285156" xlink:href="#DejaVuSans-48"/>
     </g>
    </g>
   </g>
  </g>
 </g>
 <defs>
  <clipPath id="p019e0b918e">
   <rect height="192.025" width="374.65" x="46.55" y="10.8"/>
  </clipPath>
 </defs>
</svg>
